# xmcd
#
# Track frame offsets: 
#        150
#        18335
#        36065
#        60882
#
# Disc length: 1174 seconds
#
# Revision: 1
# Processed by: cddbd v1.5.2PL0 Copyright (c) Steve Scherf et al.
# Submitted via: ExactAudioCopyFreeDBPlugin 1.0
#
DISCID=22049404
DTITLE=Erykah Badu - Didn't Cha Know
DYEAR=2001
DGENRE=Jazz
TTITLE0=Didn't Cha Know
TTITLE1=Tyrone
TTITLE2=Hollywood
TTITLE3=Drama
EXTD=YEAR: 2001
EXTT0=
EXTT1=
EXTT2=
EXTT3=
PLAYORDER=
